<?xml version="1.0" encoding="UTF-8"?>
<!DOCTYPE svg PUBLIC "-//W3C//DTD SVG 1.1//EN" "http://www.w3.org/Graphics/SVG/1.1/DTD/svg11.dtd">
<svg xmlns="http://www.w3.org/2000/svg" version="1.1" width="512px" height="512px" style="shape-rendering:geometricPrecision; text-rendering:geometricPrecision; image-rendering:optimizeQuality; fill-rule:evenodd; clip-rule:evenodd" xmlns:xlink="http://www.w3.org/1999/xlink">
<g><path style="opacity:0.991" fill="#ff5363" d="M 172.5,7.5 C 193.032,6.54323 208.532,14.8766 219,32.5C 235.098,63.7989 234.098,94.4656 216,124.5C 200.761,144.434 181.594,149.601 158.5,140C 141.361,127.906 131.194,111.406 128,90.5C 124.448,65.7056 130.115,43.3723 145,23.5C 152.665,15.4229 161.832,10.0896 172.5,7.5 Z"/></g>
<g><path style="opacity:0.99" fill="#ff5363" d="M 326.5,7.5 C 351.708,7.85875 368.875,19.8587 378,43.5C 385.587,66.2979 385.254,88.9645 377,111.5C 368.532,131.652 353.532,142.985 332,145.5C 316.366,144.186 304.032,137.186 295,124.5C 276.094,93.0677 275.76,61.401 294,29.5C 302.082,17.8877 312.916,10.5544 326.5,7.5 Z"/></g>
<g><path style="opacity:0.988" fill="#ff5363" d="M 39.5,101.5 C 59.217,101.109 74.0503,109.443 84,126.5C 95.8762,146.924 98.8762,168.591 93,191.5C 81.2653,220.621 61.7653,227.454 34.5,212C 12.8672,191.771 4.36721,166.937 9,137.5C 11.9666,119.147 22.1333,107.147 39.5,101.5 Z"/></g>
<g><path style="opacity:0.989" fill="#ff5364" d="M 458.5,101.5 C 477.738,99.8674 491.238,107.867 499,125.5C 508.395,155.471 503.062,182.471 483,206.5C 469.553,220.056 454.053,223.223 436.5,216C 424.661,207.166 417.827,195.333 416,180.5C 413.563,159.917 417.896,140.917 429,123.5C 436.664,113.102 446.497,105.769 458.5,101.5 Z"/></g>
<g><path style="opacity:1" fill="#fb7a75" d="M 365.5,199.5 C 373.228,277.227 345.561,338.727 282.5,384C 230.161,415.982 174.828,422.482 116.5,403.5C 88.0594,361.797 78.8927,316.131 89,266.5C 107.378,207.23 146.545,185.397 206.5,201C 225.485,207.486 241.819,217.986 255.5,232.5C 286.075,201.025 322.742,190.025 365.5,199.5 Z"/></g>
<g><path style="opacity:0.995" fill="#fe5364" d="M 365.5,199.5 C 390.972,210.14 408.472,228.474 418,254.5C 428.982,287.021 429.316,319.687 419,352.5C 402.754,401.85 372.921,440.683 329.5,469C 306.37,483.661 281.703,495.161 255.5,503.5C 200.655,487.104 155.822,456.437 121,411.5C 119.223,408.941 117.723,406.274 116.5,403.5C 174.828,422.482 230.161,415.982 282.5,384C 345.561,338.727 373.228,277.227 365.5,199.5 Z"/></g>
</svg>
